<?xml version="1.0" encoding="iso-8859-1"?>
<!-- Generator: Adobe Illustrator 16.0.0, SVG Export Plug-In . SVG Version: 6.00 Build 0)  -->
<!DOCTYPE svg PUBLIC "-//W3C//DTD SVG 1.1//EN" "http://www.w3.org/Graphics/SVG/1.1/DTD/svg11.dtd">
<svg version="1.1" id="Layer_1" xmlns="http://www.w3.org/2000/svg" xmlns:xlink="http://www.w3.org/1999/xlink" x="0px" y="0px"
	 width="100px" height="100px" viewBox="0 0 100 100" style="enable-background:new 0 0 100 100;" xml:space="preserve">
<path style="fill:none;stroke:#C2C2C1;stroke-width:3;stroke-linecap:round;stroke-miterlimit:10;" d="M24.616,33.321
	c-2.96,4.657-4.683,10.18-4.683,16.108c0,16.605,13.461,30.066,30.066,30.066c16.606,0,30.067-13.461,30.067-30.066
	c0-5.928-1.721-11.45-4.684-16.107"/>
<g>
	<path style="display:none;fill:none;stroke:#000000;stroke-miterlimit:10;" d="M76.566,50"/>
	<path style="display:none;fill:none;stroke:#000000;stroke-miterlimit:10;" d="M23.46,49.99c-0.01,0-0.02,0-0.03,0.01"/>
	<path style="opacity:0.5;fill:#E64C3C;" d="M76.57,49.67V50c0,0.27,0,0.54-0.021,0.81c-0.75,4.99-11.819,1.51-23.66-1.94
		C63.99,44.87,74.14,41.18,76.57,49.67z"/>
	<path style="fill:#E64C3C;" d="M76.55,50.81c-0.02,0.61-0.06,1.209-0.12,1.81c-0.02,0.229-0.05,0.46-0.08,0.689
		c-0.02,0.271-0.06,0.54-0.109,0.811c-0.04,0.31-0.101,0.62-0.16,0.93c-0.03,0.17-0.061,0.33-0.1,0.5
		c-0.15,0.7-0.32,1.391-0.53,2.07c-0.12,0.41-0.25,0.8-0.391,1.2c-0.069,0.22-0.149,0.439-0.239,0.649
		c-0.101,0.271-0.21,0.54-0.32,0.811c-0.23,0.55-0.47,1.08-0.74,1.609c-0.25,0.5-0.52,0.99-0.8,1.471
		c-0.12,0.22-0.24,0.42-0.37,0.63c-0.68,1.1-1.439,2.14-2.27,3.13c-0.181,0.21-0.351,0.41-0.53,0.61
		c-0.25,0.279-0.51,0.55-0.78,0.829c-0.21,0.221-0.43,0.44-0.66,0.65c-0.239,0.23-0.489,0.46-0.739,0.69
		c-0.021,0.01-0.03,0.02-0.051,0.05c-0.489,0.42-0.989,0.83-1.52,1.229c-0.15,0.12-0.3,0.24-0.46,0.36
		c-0.01,0.01-0.021,0.01-0.03,0.02c-0.109,0.07-0.22,0.15-0.33,0.221c-0.12,0.09-0.239,0.18-0.359,0.26
		c-0.16,0.11-0.32,0.21-0.48,0.31c-0.08,0.061-0.16,0.11-0.24,0.16c-0.489,0.311-0.979,0.601-1.479,0.87
		c-0.311,0.16-0.62,0.32-0.93,0.47c-0.021,0.011-0.04,0.021-0.061,0.03c-0.24,0.12-0.479,0.24-0.72,0.34
		c-0.05,0.021-0.12,0.05-0.181,0.08c-0.93,0.42-1.89,0.78-2.869,1.08c-2.49,0.771-5.131,1.19-7.88,1.19c-0.01,0-0.01,0-0.02,0
		C35.34,76.56,23.46,64.66,23.46,50v-0.01c0.11-0.03,0.3,0.13,0.4,0.24c6.31,6.77,18.13,2.56,29.03-1.36
		C64.73,52.32,75.8,55.8,76.55,50.81z"/>
	<path style="opacity:0.5;fill:#E64C3C;" d="M52.89,48.87C41.99,52.79,30.17,57,23.86,50.23c-0.1-0.11-0.29-0.27-0.4-0.24
		C24.68,40.99,39.3,44.91,52.89,48.87z"/>
	<path style="display:none;fill:none;stroke:#000000;stroke-miterlimit:10;" d="M76.55,50.81c0.021-0.04,0.021-0.09,0.03-0.14
		C76.29,62.3,68.53,72.09,57.9,75.38C68.47,72.09,76.21,62.37,76.55,50.81z"/>
	<path style="display:none;fill:none;stroke:#000000;stroke-miterlimit:10;" d="M76.6,50.24c0,0.14-0.01,0.27-0.02,0.4
		c0.01-0.21,0.01-0.43,0.01-0.64C76.59,50.08,76.6,50.16,76.6,50.24z"/>
</g>
</svg>
